<?xml version="1.0" encoding="UTF-8"?>
<svg version="1.1" xmlns="http://www.w3.org/2000/svg" width="128" height="128">
<path d="M0 0 C13.06882107 10.24161193 22.45568759 23.6125491 26 40 C26.44876574 44.23807456 26.52440118 48.42793045 26.5 52.6875 C26.49500488 53.8321875 26.49000977 54.976875 26.48486328 56.15625 C26.11262689 74.29057997 18.84161456 88.28723107 6 101 C-9.78980383 115.66618483 -27.35144968 117.91926567 -48.01416016 117.19091797 C-63.93784607 116.17273952 -77.50575312 106.30483108 -87.96484375 94.84765625 C-98.03712686 82.65953248 -102.58958383 68.95062102 -102.5 53.3125 C-102.49500488 52.1678125 -102.49000977 51.023125 -102.48486328 49.84375 C-102.11262689 31.70942003 -94.84161456 17.71276893 -82 5 C-59.5885549 -15.81662317 -24.77060058 -17.20369109 0 0 Z " fill="#08130E" transform="translate(102,11)"/>
<path d="M0 0 C1.16660156 0.00322266 2.33320312 0.00644531 3.53515625 0.00976562 C4.75847656 0.01814453 5.98179688 0.02652344 7.2421875 0.03515625 C8.47324219 0.03966797 9.70429687 0.04417969 10.97265625 0.04882812 C14.02088142 0.06064295 17.06901064 0.07711597 20.1171875 0.09765625 C20.1171875 2.73765625 20.1171875 5.37765625 20.1171875 8.09765625 C7.7421875 8.59265625 7.7421875 8.59265625 -4.8828125 9.09765625 C-4.90571654 15.77291029 -4.92564514 22.44802905 -4.93774414 29.12329102 C-4.94278575 31.39608216 -4.94961887 33.66887005 -4.95825195 35.94165039 C-4.97032511 39.20069176 -4.97604237 42.45969042 -4.98046875 45.71875 C-4.98563004 46.74165634 -4.99079132 47.76456268 -4.99610901 48.81846619 C-4.99618454 49.759366 -4.99626007 50.70026581 -4.99633789 51.66967773 C-4.99966881 52.91877174 -4.99966881 52.91877174 -5.00306702 54.19309998 C-5.09286082 56.10798899 -5.09286082 56.10798899 -3.8828125 57.09765625 C-1.85787019 57.19175104 0.1703862 57.21508747 2.19750977 57.21118164 C3.49878311 57.21110611 4.80005646 57.21103058 6.14076233 57.21095276 C7.57170652 57.20584534 9.00265032 57.20062933 10.43359375 57.1953125 C11.8894801 57.19344828 13.34536707 57.1920244 14.80125427 57.19102478 C18.63998129 57.1871999 22.47867069 57.17736989 26.31738281 57.1663208 C30.23176566 57.15610603 34.14615456 57.15152702 38.06054688 57.14648438 C45.74611093 57.13574759 53.43164395 57.11867154 61.1171875 57.09765625 C61.14245695 50.42245285 61.16002018 43.74726168 61.17211914 37.07202148 C61.17716075 34.79923034 61.18399387 32.52644245 61.19262695 30.25366211 C61.20470011 26.99462074 61.21041737 23.73562208 61.21484375 20.4765625 C61.22000504 19.45365616 61.22516632 18.43074982 61.23048401 17.37684631 C61.23059731 15.9654966 61.23059731 15.9654966 61.23071289 14.52563477 C61.2329335 13.69290543 61.23515411 12.86017609 61.23744202 12.00221252 C61.32723582 10.08732351 61.32723582 10.08732351 60.1171875 9.09765625 C58.33849024 8.9400122 56.55400274 8.84664948 54.76953125 8.78125 C53.68994141 8.73935547 52.61035156 8.69746094 51.49804688 8.65429688 C49.79358398 8.59532227 49.79358398 8.59532227 48.0546875 8.53515625 C46.91451172 8.49197266 45.77433594 8.44878906 44.59960938 8.40429688 C41.77226555 8.29782786 38.94483012 8.19581418 36.1171875 8.09765625 C36.1171875 5.45765625 36.1171875 2.81765625 36.1171875 0.09765625 C39.99193207 -0.01902589 43.86622146 -0.08975606 47.7421875 -0.15234375 C49.38380859 -0.20261719 49.38380859 -0.20261719 51.05859375 -0.25390625 C57.23990083 -0.32883118 61.35601092 -0.30912855 66.1171875 4.09765625 C68.78525346 7.10768376 69.49406572 8.96079441 69.50537109 12.97045898 C69.51482758 13.93503525 69.52428406 14.89961151 69.5340271 15.89341736 C69.52795441 16.92890213 69.52188171 17.9643869 69.515625 19.03125 C69.51849518 20.10133804 69.52136536 21.17142609 69.52432251 22.27394104 C69.52636303 24.53590423 69.52083403 26.79788507 69.50830078 29.05981445 C69.49226336 32.51879457 69.50814244 35.97660338 69.52734375 39.43554688 C69.52536101 41.63411716 69.52151669 43.83268672 69.515625 46.03125 C69.52169769 47.06471054 69.52777039 48.09817108 69.5340271 49.16294861 C69.44392679 58.38335774 69.44392679 58.38335774 66.1171875 62.09765625 C62.13135006 65.00732813 59.28178186 65.47933015 54.38671875 65.50170898 C53.73077728 65.50857224 53.07483582 65.51543549 52.39901733 65.52250671 C50.24235055 65.54072825 48.08641434 65.53694475 45.9296875 65.53125 C44.42423263 65.53581364 42.91877985 65.54111976 41.41333008 65.5471344 C38.26277181 65.556056 35.11246716 65.55365289 31.96191406 65.54370117 C27.92997299 65.5322046 23.89890684 65.55243732 19.86708069 65.58161831 C16.75975003 65.59998658 13.6526289 65.59968682 10.54525757 65.59398079 C9.05893729 65.59382769 7.57260271 65.59986258 6.08633423 65.61227226 C4.00622018 65.62719598 1.92772068 65.61649871 -0.15234375 65.59936523 C-1.92508667 65.59911598 -1.92508667 65.59911598 -3.73364258 65.59886169 C-7.56415743 64.98921695 -9.16898243 63.82908834 -11.8828125 61.09765625 C-13.84550018 58.14011468 -14.14797729 55.77096704 -14.20507812 52.2565918 C-14.23390076 50.81941048 -14.23390076 50.81941048 -14.26330566 49.35319519 C-14.27180542 48.32398453 -14.28030518 47.29477386 -14.2890625 46.234375 C-14.30616272 44.63635796 -14.30616272 44.63635796 -14.3236084 43.00605774 C-14.3424911 40.75253258 -14.35556952 38.4989524 -14.36328125 36.24536133 C-14.38268485 32.8077702 -14.44473418 29.37257626 -14.5078125 25.93554688 C-14.52087451 23.74350375 -14.53137469 21.55144356 -14.5390625 19.359375 C-14.5637561 18.33623703 -14.58844971 17.31309906 -14.6138916 16.25895691 C-14.57583407 10.12393545 -13.72016628 6.75514264 -9.36755371 2.3306427 C-6.28419956 -0.22989368 -3.92314612 -0.0190444 0 0 Z " fill="#18CB57" transform="translate(35.8828125,41.90234375)"/>
<path d="M0 0 C3.69805438 0.15780195 5.58365082 1.27109791 8.11328125 3.81640625 C14.74902753 11.28200171 18.24758214 16.83203613 17.69848633 26.98266602 C17.26135358 31.73864642 17.26135358 31.73864642 16 33 C14.22008076 33.09370624 12.43643261 33.11744271 10.65405273 33.11352539 C9.5129454 33.11344986 8.37183807 33.11337433 7.19615173 33.11329651 C5.9545076 33.10813522 4.71286346 33.10297394 3.43359375 33.09765625 C1.53795433 33.09553383 1.53795433 33.09553383 -0.39598083 33.09336853 C-3.76124889 33.08870582 -7.1264499 33.0797148 -10.49169922 33.06866455 C-13.9234967 33.05844846 -17.35530109 33.05387049 -20.78710938 33.04882812 C-27.52475824 33.0377738 -34.26237525 33.0210171 -41 33 C-41.17480469 28.20849609 -41.17480469 28.20849609 -39.6015625 26.33203125 C-38.62316406 25.57986328 -38.62316406 25.57986328 -37.625 24.8125 C-32.38147139 20.56505389 -27.72351222 15.81062617 -23 11 C-20.50638429 12.20381448 -18.31856917 13.45428722 -16 15 C-16 15.66 -16 16.32 -16 17 C-15.34 17 -14.68 17 -14 17 C-13.73832031 16.40960938 -13.47664063 15.81921875 -13.20703125 15.2109375 C-11.9360512 12.88286401 -10.60869648 11.43970001 -8.6875 9.625 C-5.54073234 6.57698028 -2.7458279 3.41148314 0 0 Z " fill="#18CE58" transform="translate(76,63)"/>
<path d="M0 0 C2.63359939 0.99343303 3.96607707 1.96948679 5.91918945 3.97460938 C6.52569336 4.58949219 7.13219727 5.204375 7.75708008 5.83789062 C8.37389648 6.48371094 8.99071289 7.12953125 9.6262207 7.79492188 C10.25463867 8.43300781 10.88305664 9.07109375 11.53051758 9.72851562 C18.38434967 16.75094466 18.38434967 16.75094466 18.5637207 20.60742188 C18.5224707 21.37054687 18.4812207 22.13367188 18.4387207 22.91992188 C16.23950195 23.66601562 16.23950195 23.66601562 13.4387207 23.91992188 C10.98168945 22.26757813 10.98168945 22.26757813 8.6262207 19.98242188 C7.83602539 19.23089844 7.04583008 18.479375 6.23168945 17.70507812 C5.64000977 17.11597656 5.04833008 16.526875 4.4387207 15.91992188 C4.41890137 16.8182373 4.39908203 17.71655273 4.37866211 18.64208984 C4.30062809 21.97082266 4.21393956 25.29909443 4.12133789 28.62744141 C4.08302397 30.06875928 4.04817527 31.51017356 4.0168457 32.95166016 C3.97124624 35.02216073 3.91324627 37.0919962 3.8527832 39.16210938 C3.8213623 40.40847168 3.78994141 41.65483398 3.75756836 42.93896484 C3.4387207 45.91992188 3.4387207 45.91992188 1.4387207 47.91992188 C-3.11683485 47.36436632 -3.11683485 47.36436632 -4.5612793 45.91992188 C-4.649676 43.54423668 -4.67658235 41.19783514 -4.65893555 38.82226562 C-4.6575206 38.11340714 -4.65610565 37.40454865 -4.65464783 36.67420959 C-4.64903372 34.40190475 -4.63647893 32.12969712 -4.6237793 29.85742188 C-4.61876611 28.32031392 -4.61420289 26.78320442 -4.61010742 25.24609375 C-4.59905972 21.47066546 -4.58178571 17.69531017 -4.5612793 13.91992188 C-5.2212793 13.91992188 -5.8812793 13.91992188 -6.5612793 13.91992188 C-6.7675293 14.45617188 -6.9737793 14.99242187 -7.1862793 15.54492188 C-9.1172171 18.88017808 -11.39590781 21.68326574 -14.5612793 23.91992188 C-17.4362793 23.79492188 -17.4362793 23.79492188 -19.5612793 22.91992188 C-20.2902832 20.69873047 -20.2902832 20.69873047 -20.5612793 17.91992188 C-19.10180664 15.68408203 -19.10180664 15.68408203 -16.8972168 13.45898438 C-16.10444336 12.65847656 -15.31166992 11.85796875 -14.49487305 11.03320312 C-13.65053711 10.21207031 -12.80620117 9.3909375 -11.9362793 8.54492188 C-11.11514648 7.70058594 -10.29401367 6.85625 -9.44799805 5.98632812 C-8.64749023 5.19355469 -7.84698242 4.40078125 -7.0222168 3.58398438 C-5.92079346 2.4927124 -5.92079346 2.4927124 -4.79711914 1.37939453 C-2.5612793 -0.08007812 -2.5612793 -0.08007812 0 0 Z " fill="#18C957" transform="translate(64.561279296875,9.080078125)"/>
<path d="M0 0 C1.875 1.0625 1.875 1.0625 3 3 C3.375 6.5625 3.375 6.5625 3 10 C-0.46923881 12.31282587 -1.92205575 12.42478586 -6 12 C-7.875 10.875 -7.875 10.875 -9 9 C-9.39365568 5.85075452 -9.52854531 3.88090884 -7.875 1.125 C-5.11909116 -0.52854531 -3.14924548 -0.39365568 0 0 Z " fill="#18CA57" transform="translate(46,58)"/>
</svg>
