<?xml version="1.0" encoding="UTF-8"?>
<svg version="1.1" xmlns="http://www.w3.org/2000/svg" width="128" height="128">
<path d="M0 0 C0.68707031 -0.00671722 1.37414063 -0.01343445 2.08203125 -0.02035522 C4.33894212 -0.03925152 6.59555415 -0.04325545 8.85253906 -0.04541016 C10.43426634 -0.05184507 12.01599245 -0.05857394 13.59771729 -0.06558228 C16.90957393 -0.07753498 20.22132644 -0.08126529 23.53320312 -0.08007812 C27.75402091 -0.07987532 31.9741625 -0.10714629 36.1948204 -0.14162254 C39.46188352 -0.16398531 42.72878649 -0.16791278 45.99591827 -0.16685867 C47.55068536 -0.16920174 49.10545775 -0.17795147 50.66014862 -0.19352341 C61.90248978 -0.2955665 71.7333089 0.55195978 80.33691406 8.58740234 C86.36937402 15.29697515 89.10295965 22.38969541 89.15869141 31.42236328 C89.16540863 32.10943359 89.17212585 32.79650391 89.17904663 33.50439453 C89.19794293 35.7613054 89.20194685 38.01791743 89.20410156 40.27490234 C89.21053648 41.85662962 89.21726535 43.43835573 89.22427368 45.02008057 C89.23622639 48.33193721 89.2399567 51.64368972 89.23876953 54.95556641 C89.23856672 59.17638419 89.2658377 63.39652578 89.30031395 67.61718369 C89.32267672 70.8842468 89.32660418 74.15114977 89.32555008 77.41828156 C89.32789315 78.97304864 89.33664287 80.52782103 89.35221481 82.0825119 C89.45425791 93.32485306 88.60673162 103.15567218 80.57128906 111.75927734 C73.85565174 117.7971898 66.76066493 120.52541225 57.72045898 120.58105469 C56.68744408 120.59113052 56.68744408 120.59113052 55.63356018 120.60140991 C53.37184296 120.620304 51.11042389 120.62430981 48.84863281 120.62646484 C47.26450991 120.63289916 45.68038817 120.63962799 44.0962677 120.64663696 C40.78021492 120.65858855 37.46426615 120.66232002 34.14819336 120.66113281 C29.91831008 120.66092984 25.68910026 120.68821868 21.45937634 120.72267723 C18.18806451 120.74501748 14.91691288 120.74896817 11.64553261 120.74791336 C10.08714797 120.75025912 8.52875823 120.75902434 6.97044945 120.77457809 C-1.43594677 120.85062466 -8.76765123 120.79472413 -16.13183594 116.29052734 C-16.94136719 115.82130859 -17.75089844 115.35208984 -18.58496094 114.86865234 C-25.27266504 109.9255667 -28.83307048 104.26360574 -31.13183594 96.29052734 C-31.39926147 92.90289307 -31.39926147 92.90289307 -31.42236328 89.15869141 C-31.42908051 88.47162109 -31.43579773 87.78455078 -31.44271851 87.07666016 C-31.4616148 84.81974929 -31.46561873 82.56313726 -31.46777344 80.30615234 C-31.47420835 78.72442507 -31.48093722 77.14269896 -31.48794556 75.56097412 C-31.49989826 72.24911747 -31.50362857 68.93736496 -31.50244141 65.62548828 C-31.5022386 61.4046705 -31.52950957 57.18452891 -31.56398582 52.963871 C-31.58634859 49.69680788 -31.59027606 46.42990491 -31.58922195 43.16277313 C-31.59156503 41.60800604 -31.60031475 40.05323366 -31.61588669 38.49854279 C-31.71792978 27.25620163 -30.8704035 17.42538251 -22.83496094 8.82177734 C-16.12538813 2.78931739 -9.03266787 0.05573176 0 0 Z " fill="#9757FE" transform="translate(35.1318359375,3.70947265625)"/>
<path d="M0 0 C14.73732527 -0.67703524 28.39007848 3.82263599 39.78125 13.26953125 C41.11070921 14.27467601 42.44289226 15.27626575 43.78125 16.26953125 C43.18082344 19.51469383 42.12065675 21.36354885 40.03125 23.89453125 C30.60709697 36.12107031 28.36880173 49.25657142 27.78125 64.26953125 C24.63574187 64.38745946 21.49081459 64.45734508 18.34375 64.51953125 C17.46525391 64.55304688 16.58675781 64.5865625 15.68164062 64.62109375 C5.93557721 64.76494708 -2.17071354 60.97901574 -9.21875 54.26953125 C-14.74909591 47.25132578 -16.53073651 40.38751931 -16.4140625 31.58984375 C-16.40981766 30.37069778 -16.40981766 30.37069778 -16.40548706 29.12692261 C-16.39435619 26.5493045 -16.36926515 23.97204306 -16.34375 21.39453125 C-16.33371101 19.63932796 -16.32458677 17.88411919 -16.31640625 16.12890625 C-16.29444015 11.84231199 -16.25995978 7.55598195 -16.21875 3.26953125 C-10.78069507 0.98666178 -5.81306236 0.48677343 0 0 Z " fill="#F2B8F6" transform="translate(20.21875,59.73046875)"/>
<path d="M0 0 C2.01499341 2.01499341 1.21185707 6.07542826 1.23828125 8.83984375 C1.246353 9.63596573 1.25442474 10.43208771 1.26274109 11.25233459 C1.27660781 12.94627696 1.28731832 14.64024757 1.29516602 16.33422852 C1.31222307 18.89590923 1.35606321 21.45624591 1.40039062 24.01757812 C1.50842518 35.3171491 0.78968927 44.81040846 -7.296875 53.46875 C-15.00608745 60.39996853 -22.72261243 62.32376662 -32.875 62.125 C-34.19371094 62.11146484 -34.19371094 62.11146484 -35.5390625 62.09765625 C-37.6928271 62.07424577 -39.84645014 62.0383801 -42 62 C-42.02578125 60.91203125 -42.0515625 59.8240625 -42.078125 58.703125 C-42.58020388 43.94908211 -45.67596487 29.79299486 -56.21875 18.65625 C-56.8065625 18.1096875 -57.394375 17.563125 -58 17 C-55.12150212 9.69804776 -46.29030874 5.42045283 -39.5625 2.125 C-27.19408179 -3.08552512 -12.85857891 -3.64326403 0 0 Z " fill="#5800F4" transform="translate(123,62)"/>
<path d="M0 0 C8.24184601 6.26662471 13.96543506 16.10188765 16.61328125 26.13671875 C17.5036832 32.72929075 17.15798238 39.36474016 17 46 C6.11 46 -4.78 46 -16 46 C-16 28.72688721 -13.83844897 14.35086819 -1.75 1.6328125 C-0.88375 0.82457031 -0.88375 0.82457031 0 0 Z " fill="#9656FE" transform="translate(64,78)"/>
<path d="M0 0 C5.00230198 2.45567552 8.49851535 5.9970307 11 11 C11.85895445 16.91451492 11.08033922 21.3682911 7.6171875 26.26953125 C3.92992877 30.21507622 -0.21868695 31.6761249 -5.4375 32.625 C-11.64701716 31.53561102 -16.35116262 28.2484146 -20.0625 23.1875 C-21.71064954 17.58379157 -22.0235815 13.04716299 -19.375 7.75 C-13.26806487 0.67881196 -9.53291368 -1.53435869 0 0 Z " fill="#FDFBFF" transform="translate(69,25)"/>
</svg>
